
        <svg xmlns="http://www.w3.org/2000/svg" xmlns:xlink="http://www.w3.org/1999/xlink" version="1.1" width="3162.2002820874472" 
        height="779.2665726375177" viewBox="0 0 3162.2002820874472 779.2665726375177">
			
			<g transform="scale(8.110014104372356) translate(10, 10)">
				<defs id="SvgjsDefs1232"></defs><g id="SvgjsG1233" featureKey="xG21Y3-0" transform="matrix(0.8017930527793344,0,0,0.8017930527793344,-2.3131729496218854,-2.0469776423354564)" fill="#bbcefd"><g xmlns="http://www.w3.org/2000/svg"><path d="M50.333,2.553c-15.686,0-29.611,7.656-38.255,19.422c-1.293,1.632-2.424,3.398-3.371,5.277   C4.998,34.01,2.885,41.763,2.885,50.001c0,26.163,21.285,47.448,47.448,47.448s47.448-21.285,47.448-47.448   S76.496,2.553,50.333,2.553z M44.928,61.67c-7.897,0-14.322-6.506-14.322-14.503s6.425-14.503,14.322-14.503   S59.25,39.17,59.25,47.167S52.825,61.67,44.928,61.67z M44.928,28.412c-10.242,0-18.574,8.413-18.574,18.755   s8.332,18.755,18.574,18.755c0.116,0,0.228-0.016,0.343-0.018c-2.924,1.144-6.097,1.777-9.415,1.777   c-14.448,0-26.203-11.895-26.203-26.515c0-4.277,1.013-8.317,2.798-11.899c0.911-1.658,1.931-3.248,3.045-4.766   c4.808-6.003,12.147-9.85,20.36-9.85c14.011,0,25.488,11.185,26.171,25.192C59.196,33.132,52.599,28.412,44.928,28.412z    M50.333,93.197c-23.313,0-42.36-18.568-43.158-41.69c4.214,11.893,15.478,20.427,28.681,20.427   c16.794,0,30.456-13.802,30.456-30.767S52.649,10.4,35.855,10.4c-1.047,0-2.082,0.054-3.103,0.158   c5.374-2.405,11.321-3.754,17.58-3.754c23.818,0,43.196,19.378,43.196,43.196S74.151,93.197,50.333,93.197z"></path></g></g><g id="SvgjsG1234" featureKey="n48U4P-0" transform="matrix(2.284131339510433,0,0,2.284131339510433,91.38605582691397,8.985470809696341)" fill="#ffffff"><path d="M2.02 20 l0 -14.58 l4.34 0 c1.12 0 2.16 0.18 3.12 0.56 c0.96 0.36 1.78 0.88 2.44 1.52 c1.34 1.3 2.14 3.14 2.14 5.18 c0 1.06 -0.2 2.06 -0.6 2.98 s-0.96 1.68 -1.64 2.32 c-1.38 1.26 -3.34 2.02 -5.46 2.02 l-4.34 0 z M3.56 6.859999999999999 l0 11.7 l2.74 0 c1.22 0 2.3 -0.26 3.22 -0.76 c0.94 -0.5 1.68 -1.18 2.18 -2.06 c0.52 -0.88 0.78 -1.9 0.78 -3.02 c0 -1.66 -0.62 -3.14 -1.68 -4.2 c-1.04 -1.04 -2.66 -1.66 -4.5 -1.66 l-2.74 0 z M22.52 20 l-5.44 0 l0 -14.58 l5.24 0 c2.64 -0.04 4.7 1.32 4.7 3.66 c0 0.34 -0.02 0.64 -0.2 1.2 c-0.08 0.28 -0.2 0.52 -0.36 0.76 c-0.3 0.48 -0.9 1.04 -1.66 1.38 c1.02 0.26 1.84 0.88 2.26 1.58 s0.6 1.4 0.6 2 c0 1.36 -0.58 2.42 -1.54 3.06 c-0.96 0.62 -2.2 0.94 -3.6 0.94 z M22.2 6.82 l-3.6 0 l0 5.08 l3.48 0 c1.14 0 1.98 -0.24 2.54 -0.74 s0.84 -1.12 0.84 -1.9 c0 -1.78 -1.6 -2.44 -3.26 -2.44 z M22.26 13.26 l-3.66 0 l0 5.34 l3.96 0 c1.58 0 3.54 -0.64 3.54 -2.7 c0 -1.26 -0.78 -1.96 -1.76 -2.3 c-0.68 -0.26 -1.34 -0.34 -2.08 -0.34 z M35.5 6.859999999999999 l0 13.14 l-1.52 0 l0 -13.14 l-4.88 0 l0 -1.44 l11.28 0 l0 1.44 l-4.88 0 z M46.84 20.14 c-1.38 0 -2.7 -0.52 -3.56 -1.28 c-0.9 -0.78 -1.48 -1.82 -1.6 -2.84 l1.44 -0.4 c0.16 0.86 0.6 1.58 1.32 2.18 c0.7 0.6 1.5 0.9 2.4 0.9 c0.84 0 1.62 -0.2 2.24 -0.64 c0.62 -0.42 1.02 -1.14 1.02 -2.02 c0 -1.02 -0.54 -1.68 -1.22 -2.08 c-0.48 -0.28 -0.9 -0.4 -1.38 -0.5 l-1.92 -0.38 c-0.4 -0.08 -0.82 -0.22 -1.28 -0.42 c-0.46 -0.22 -0.86 -0.48 -1.2 -0.82 c-0.68 -0.66 -1.02 -1.5 -1.02 -2.52 c0 -0.8 0.22 -1.52 0.66 -2.14 c0.44 -0.64 1 -1.1 1.7 -1.44 c0.7 -0.32 1.44 -0.48 2.26 -0.48 c3.14 0 4.52 1.94 4.82 3.5 l-1.4 0.44 c-0.24 -1.04 -1.18 -2.52 -3.44 -2.52 c-1.56 -0.04 -3.08 1.06 -3.06 2.58 c0 1.12 0.7 2.02 2.12 2.3 l1.84 0.36 c1.24 0.24 2.2 0.66 2.84 1.28 c0.44 0.4 0.76 0.86 0.96 1.34 c0.2 0.5 0.3 0.94 0.3 1.34 c0.02 2.56 -2.14 4.32 -4.84 4.26 z M54.74 20 l0 -14.58 l9.12 0 l0 1.42 l-7.58 0 l0 5.04 l6.94 0 l0 1.42 l-6.94 0 l0 5.28 l7.66 0 l0 1.42 l-9.2 0 z M77.84 20 l-1.6 -3.72 l-7.94 0 l-1.6 3.72 l-1.56 0 l6.28 -14.58 l1.74 0 l6.3 14.58 l-1.62 0 z M75.66 14.879999999999999 l-3.4 -7.88 l-3.38 7.88 l6.78 0 z M92.22 20 l-1.86 0 l-4.32 -5.9 l-2.96 0 l0 5.9 l-1.54 0 l0 -14.58 l5.06 0 c1.72 0 3.1 0.48 3.9 1.28 s1.22 1.8 1.22 2.98 c0 2.46 -1.84 3.88 -4 4.16 z M83.08 6.859999999999999 l0 5.84 l3.38 0 c1.28 0 2.28 -0.36 2.86 -0.94 c0.56 -0.56 0.84 -1.26 0.84 -2.04 c0 -1.44 -0.88 -2.86 -3.66 -2.86 l-3.42 0 z M101.2 20.16 c-2 0 -3.86 -0.78 -5.16 -2.06 c-0.64 -0.64 -1.16 -1.42 -1.54 -2.34 c-0.38 -0.94 -0.58 -1.94 -0.58 -3 c0 -1.08 0.2 -2.1 0.6 -3.04 s0.92 -1.74 1.58 -2.38 c1.34 -1.3 3.2 -2.08 5.16 -2.08 c1.54 0 2.94 0.46 3.88 1.12 c0.48 0.32 0.9 0.7 1.28 1.12 c0.74 0.86 1.14 1.72 1.36 2.56 l-1.46 0.52 c-0.12 -0.48 -0.32 -1 -0.86 -1.76 c-0.28 -0.38 -0.58 -0.72 -0.94 -1.02 s-0.82 -0.56 -1.4 -0.76 c-0.58 -0.22 -1.2 -0.32 -1.9 -0.32 c-1.52 0 -2.98 0.62 -4 1.64 c-1.04 1.04 -1.7 2.58 -1.7 4.3 c0 1.14 0.24 2.18 0.74 3.1 c0.48 0.92 1.16 1.64 2.06 2.16 c0.86 0.52 1.84 0.78 2.92 0.78 c1.34 0 2.5 -0.46 3.2 -1.02 c0.36 -0.28 0.68 -0.6 0.96 -1 c0.28 -0.38 0.48 -0.72 0.62 -1 c0.12 -0.28 0.24 -0.58 0.34 -0.88 l1.46 0.52 c-0.22 0.78 -0.6 1.58 -1.34 2.48 c-0.36 0.44 -0.8 0.84 -1.26 1.18 c-0.96 0.68 -2.42 1.18 -4.02 1.18 z M120.4 20 l0 -6.68 l-8.3 0 l0 6.68 l-1.54 0 l0 -14.58 l1.54 0 l0 6.46 l8.3 0 l0 -6.46 l1.54 0 l0 14.58 l-1.54 0 z"></path></g>
			</g>
		</svg>
	