<svg xmlns="http://www.w3.org/2000/svg" class="logo-full" width="342.86" height="97" viewBox="0 0 342.86 97">
  <g id="Group_422" data-name="Group 422" transform="translate(-89.994 -317.978)">
    <g id="Group_420" data-name="Group 420" transform="translate(89.994 317.978)">
      <g class="logo-text">
        <path id="Path_457" data-name="Path 457" d="M211.224,328.372c1.135-2.839,1.552-3.331,2.461-3.445,1.477-.227,1.628-.264,1.628-.719,0-.493-.492-.493-.681-.493-.569,0-2.348.152-3.37.152-1.211,0-2.992-.152-3.219-.152-.416,0-1.023,0-1.023.53s.492.569,1.629.606c.644.039,1.552.228,1.552,1.135a7.047,7.047,0,0,1-.681,2.537l-5.074,12.913-5.681-13.595a13.458,13.458,0,0,1-.793-2.006c0-.832.529-.871,2.309-1.1.3,0,.644-.114.644-.492,0-.416-.379-.53-.72-.53-.758,0-1.931.152-4.052.152-2.651,0-4.658-.152-5.339-.152-.265,0-.606.115-.606.493,0,.492.416.529,1.249.606,1.136.113,1.477.228,2.461,2.612l8.293,19.8c.266.606.456.8.721.8.3,0,.568-.493.643-.719l7.65-18.935Z" transform="translate(-111.015 -319.181)" fill="#005e97"></path>
        <path id="Path_458" data-name="Path 458" d="M234.763,340.084c0-5.719-4.809-8.56-9.126-8.56a8.907,8.907,0,1,0,.151,17.8,8.958,8.958,0,0,0,8.976-9.239Zm-14.389-.341c0-4.621,2.233-7.347,4.96-7.347,4.128,0,5.491,5.452,5.491,8.066,0,4.466-2.385,7.989-5.149,7.989-2.993,0-5.3-4.014-5.3-8.708Z" transform="translate(-116.516 -320.819)" fill="#005e97" fill-rule="evenodd"></path>
        <path id="Path_459" data-name="Path 459" d="M242.835,343.251c0,2.081,0,2.5-1.628,2.726-.832.115-1.136.266-1.136.607,0,.493.379.493.834.493.8,0,1.249-.152,3.749-.152,2.2,0,2.954.152,3.976.152.266,0,.644,0,.644-.456,0-.341-.19-.529-1.136-.644-1.628-.227-1.628-.644-1.628-2.764V325.946c0-.416.151-2.764.151-3.257,0-.378,0-.793-.416-.793-.19,0-.265.036-1.174.492a19.2,19.2,0,0,1-3.258,1.135c-1.1.266-1.21.3-1.21.644,0,.416.188.416.871.493,1.362.112,1.362,1.4,1.362,2.537v16.055Z" transform="translate(-121.474 -318.799)" fill="#005e97"></path>
        <path id="Path_460" data-name="Path 460" d="M265.914,344.55c0,2.728-3.1,2.728-3.825,2.728-3.144,0-3.787-1.818-3.787-3.371V333.683c0-.264.039-.53.039-.834a.463.463,0,0,0-.53-.53c-.19,0-.492,0-.909.037-.416,0-.909.041-1.477.041-.948,0-2.424-.153-2.916-.153-.264,0-.644,0-.644.453,0,.341.19.531,1.136.644,1.629.228,1.629.644,1.629,2.8v7.61c0,5.3,3.939,5.718,5.037,5.718a9.093,9.093,0,0,0,5.263-2.2,1,1,0,0,1,.605-.3c.228,0,.266.229.266.456v1.477c0,.227,0,.718.53.718a3.452,3.452,0,0,0,.759-.151l4.316-1.211c.19-.039.569-.19.569-.493s-.416-.378-.645-.378c-1.4-.077-1.742-.152-1.742-1.782V333.456c0-.794,0-1.136-.529-1.136a3.122,3.122,0,0,0-.568.037c-.19,0-.454.041-.908.041-1.78,0-3.181-.153-3.788-.153-.265,0-.644,0-.644.453,0,.341.19.492,1.137.644,1.628.228,1.628.644,1.628,2.764v8.444Z" transform="translate(-123.948 -320.97)" fill="#005e97"></path>
        <path id="Path_461" data-name="Path 461" d="M292.592,345.122c0,2.12,0,2.537-1.628,2.764-.871.115-1.136.266-1.136.607,0,.493.379.493.644.493.643,0,3.408-.152,3.976-.152.606,0,3.371.152,3.939.152.264,0,.644,0,.644-.456,0-.341-.19-.529-1.136-.644-1.628-.227-1.628-.681-1.628-2.8V336.3c0-3.522-2.727-4.885-5.227-4.885-2.12,0-3.257.493-5.566,2.651a.764.764,0,0,1-.53.227c-.152,0-.152-.112-.152-.755V331.68c0-.341-.076-.681-.416-.681-.266,0-.568.378-.832.681a11.17,11.17,0,0,1-3.863,2.461c-.416.114-.53.266-.53.492,0,.493.417.493,1.023.53,1.136.077,1.136.911,1.136,2.689v7.27c0,2.12,0,2.537-1.628,2.764-.831.115-1.136.266-1.136.607,0,.493.379.493.683.493.605,0,3.332-.152,3.9-.152.718,0,3.408.152,3.976.152.266,0,.643,0,.643-.456,0-.341-.19-.529-1.136-.644-1.628-.227-1.628-.681-1.628-2.8v-8.027a2.692,2.692,0,0,1,.72-2.121,4.491,4.491,0,0,1,3.181-1.286c3.71,0,3.71,2.838,3.71,4.619v6.853Z" transform="translate(-129.544 -320.709)" fill="#005e97"></path>
        <path id="Path_462" data-name="Path 462" d="M310.883,333.633c0-.8.075-.871.718-.871,1.818,0,2.69.074,3.333.074.492,0,.605-.111.68-.793s-.189-.759-.492-.759c-.34,0-.6.078-1.136.078h-2.159c-.793,0-.945-.153-.945-.872v-2.577c0-.6-.379-.6-.492-.6-.266,0-.493.264-.643.455a9.383,9.383,0,0,1-3.332,3.408l-1.023.53c-.151.075-.568.3-.568.682,0,.416.455.416.644.416.3,0,.567-.037.872-.037.567-.037.871.188.871.681v10.867c0,2.839,1.854,4.127,3.825,4.127,2.764,0,5.187-2.311,5.187-2.878a.333.333,0,0,0-.3-.341.916.916,0,0,0-.416.152,4.238,4.238,0,0,1-2.424.946c-1.969,0-2.2-1.742-2.2-3.446v-9.238Z" transform="translate(-135.056 -319.935)" fill="#005e97"></path>
        <path id="Path_463" data-name="Path 463" d="M334.661,337.7c.6,0,1.022,0,1.022-.68,0-1.29-1.214-5.494-6.93-5.494a9.032,9.032,0,0,0-9.392,9.242c0,5.263,3.788,8.557,8.787,8.557,4.809,0,7.458-3.333,7.458-3.9a.332.332,0,0,0-.341-.341c-.227,0-.264.037-.832.607a6.176,6.176,0,0,1-4.165,1.513c-3.9,0-6.7-3.257-6.7-7.5,0-1.967.341-2,.985-2Zm-9.582-1.174c-.871,0-1.022,0-1.022-.419a4.631,4.631,0,0,1,4.581-3.709c.569,0,3.144.075,3.144,2.309,0,.985-.948,1.819-2.575,1.819Z" transform="translate(-138.106 -320.819)" fill="#005e97" fill-rule="evenodd"></path>
        <path id="Path_464" data-name="Path 464" d="M357.133,337.7c.607,0,1.022,0,1.022-.68,0-1.29-1.211-5.494-6.929-5.494a9.032,9.032,0,0,0-9.391,9.242c0,5.263,3.788,8.557,8.785,8.557,4.809,0,7.461-3.333,7.461-3.9a.335.335,0,0,0-.341-.341c-.23,0-.267.037-.834.607a6.181,6.181,0,0,1-4.166,1.513c-3.9,0-6.7-3.257-6.7-7.5,0-1.967.34-2,.985-2Zm-9.58-1.174c-.87,0-1.023,0-1.023-.419a4.632,4.632,0,0,1,4.582-3.709c.567,0,3.142.075,3.142,2.309,0,.985-.945,1.819-2.575,1.819Z" transform="translate(-142.82 -320.819)" fill="#005e97" fill-rule="evenodd"></path>
        <path id="Path_465" data-name="Path 465" d="M369.9,331.737c0-.341-.039-.644-.417-.644-.19,0-1.06.872-1.136.947a13.56,13.56,0,0,1-3.824,2.31c-.454.113-.608.265-.608.531,0,.416.38.416.494.416,1.438.077,1.932.152,1.932,2.537v7.307c0,2.12,0,2.537-1.667,2.764-.871.115-1.136.266-1.136.607,0,.493.377.493.643.493.605,0,3.37-.152,3.939-.152.681,0,3.75.152,4.393.152.3,0,.795,0,.795-.531,0-.569-.531-.606-1.363-.644-1.932-.115-1.932-1.136-1.932-2.689v-7.193c0-3.145,1.1-3.712,1.857-3.712.225,0,.529.074,1.173.794a2.4,2.4,0,0,0,1.969.984,2.192,2.192,0,0,0,2.309-2.156c0-1.516-1.362-2.274-2.726-2.274-2.2,0-4.053,2.158-4.127,2.274-.038.074-.228.3-.341.3-.227,0-.227-.3-.227-.53v-1.893Z" transform="translate(-147.373 -320.729)" fill="#005e97"></path>
        <path id="Path_466" data-name="Path 466" d="M382.093,346.822c0,.91,0,1.211.452,1.441a12.759,12.759,0,0,0,4.772,1.06c5,0,7.307-3.257,7.307-6.1,0-3.256-3.178-4.545-4.468-5.112-3.825-1.588-4.656-1.929-4.656-3.445,0-1.364,1.4-2.272,3.028-2.272a3.95,3.95,0,0,1,3.788,2.726c.225.72.415.8.681.8.378,0,.455-.454.455-.6l.149-2.236c0-.606,0-1.022-.945-1.135-.3,0-3.106-.419-3.675-.419-5.035,0-6.739,3.03-6.739,5.189,0,2.727,2.687,3.787,4.922,4.657,2.613,1.022,4.354,1.893,4.354,3.9,0,1.97-1.969,3.1-3.673,3.1-3.067,0-4.165-3.293-4.354-3.976-.189-.718-.378-1.058-.8-1.058-.493,0-.53.567-.53.681l-.074,2.8Z" transform="translate(-151.264 -320.819)" fill="#005e97"></path>
        <path id="Path_467" data-name="Path 467" d="M213.683,378.091c0-5.714-4.8-8.552-9.118-8.552a8.9,8.9,0,1,0,.15,17.784,8.95,8.95,0,0,0,8.968-9.232Zm-14.378-.341c0-4.617,2.232-7.341,4.956-7.341,4.124,0,5.487,5.45,5.487,8.061,0,4.464-2.384,7.983-5.146,7.983-2.989,0-5.3-4.01-5.3-8.7Z" transform="translate(-112.098 -328.793)" fill="#005e97" fill-rule="evenodd"></path>
        <path id="Path_468" data-name="Path 468" d="M226.257,370.568c0-.681.152-.911.833-.911,2,0,2.648.079,3.405.079.416,0,.567-.116.567-.455,0-.908-.19-1.1-.53-1.1s-.6.076-1.665.076h-1.852c-.683,0-.833-.15-.833-.983,0-1.365.15-6.017,2.384-6.017.718,0,1.058.416,2.156,1.893.151.188.682.755,1.174.755.681,0,1.588-1.741,1.588-2.27,0-1.475-2.647-1.626-3.177-1.626a7.8,7.8,0,0,0-7.492,6.512c-.228,1.662-.341,1.775-1.136,1.927-1.021.188-1.438.379-1.438.869,0,.379.265.455.567.455.152,0,.834-.076.91-.076.643,0,.868.113.868,1.362V381.2c0,1.588,0,2.573-1.928,2.722-.8.037-1.324.077-1.324.607,0,.567.491.567.794.567.227,0,1.739-.151,4.275-.151,2.649,0,3.935.151,4.314.151.3,0,.794,0,.794-.531,0-.566-.529-.606-1.324-.643-1.93-.113-1.93-1.135-1.93-2.722V370.568Z" transform="translate(-117.124 -326.794)" fill="#005e97"></path>
        <path id="Path_469" data-name="Path 469" d="M253.66,376.53c1.022,0,1.136,0,1.551,1.14l1.628,4.538a3.348,3.348,0,0,1,.265,1.1c0,.57-.341.758-1.325.834-.756.074-1.362.19-1.362.68,0,.531.492.531.87.531.114,0,2.081-.151,4.39-.151.643,0,3.784.151,4.427.151.228,0,.87,0,.87-.491s-.415-.567-1.059-.646c-1.551-.227-1.93-1.057-3.14-3.973l-5.9-14.378c-.3-.719-.721-1.778-1.1-2.835-.568-1.553-.68-1.818-1.1-1.818-.379,0-.379.038-1.778,3.707-2.5,6.547-5.828,15.4-7.039,17.748-.719,1.321-1.06,1.362-2.309,1.474-.606.074-1.135.153-1.135.644,0,.567.492.567.718.567.492,0,2.726-.151,3.143-.151,1.1,0,3.329.151,3.707.151.871,0,1.324,0,1.324-.531,0-.454-.454-.566-1.437-.606-.871-.037-1.816-.111-1.816-1.057a12.056,12.056,0,0,1,.338-1.588l1.287-4.05c.3-.986.3-.986,1.438-.986Zm-4.163-1.358c-.68,0-.907,0-.907-.379a2.361,2.361,0,0,1,.151-.721l2.346-6.391,2.648,6.505a1.966,1.966,0,0,1,.228.72c0,.114,0,.266-.869.266Z" transform="translate(-121.546 -327.046)" fill="#005e97" fill-rule="evenodd"></path>
        <path id="Path_470" data-name="Path 470" d="M293.472,383.09c0,2.156,0,2.573-1.551,2.8-.832.112-1.135.264-1.135.606,0,.491.379.491.642.491.605,0,1.741-.151,3.9-.151,1.968,0,3.292.151,3.859.151.266,0,.644,0,.644-.454,0-.342-.189-.531-1.136-.643-1.551-.227-1.551-.681-1.551-2.8v-9.045c0-1.249-.416-4.616-5.335-4.616a6.663,6.663,0,0,0-4.237,1.778c-.189.153-1.06,1.1-1.324,1.1-.152,0-.227-.075-.756-.909a4.74,4.74,0,0,0-4.011-1.968c-1.7,0-3.065.228-5.182,2.46-.229.227-.417.416-.531.416-.152,0-.152-.112-.152-.759v-1.852c0-.34-.075-.681-.416-.681-.264,0-.567.379-.832.681a11.164,11.164,0,0,1-3.86,2.458c-.416.114-.566.264-.566.494,0,.491.454.491,1.058.528,1.136.076,1.136.909,1.136,2.685v7.267c0,2.119,0,2.536-1.629,2.763-.831.112-1.172.264-1.172.606,0,.491.416.491.718.491.606,0,2.157-.151,3.9-.151,1.93,0,3.329.151,3.821.151.341,0,.719,0,.719-.454,0-.342-.188-.531-1.136-.643-1.55-.227-1.55-.681-1.55-2.8v-8.022a2.9,2.9,0,0,1,.605-2.12,3.855,3.855,0,0,1,3.255-1.286c2.611,0,3.14,2.119,3.14,4.047v7.381c0,2.156,0,2.573-1.55,2.8-.871.112-1.136.264-1.136.606,0,.491.341.491.644.491.6,0,1.815-.151,3.9-.151,2.044,0,3.255.151,3.859.151.265,0,.644,0,.644-.454,0-.342-.19-.531-1.136-.643-1.55-.227-1.55-.681-1.55-2.8v-8.137a3.021,3.021,0,0,1,.566-2.157,4.609,4.609,0,0,1,3.255-1.287c3.178,0,3.178,2.575,3.178,3.672v7.909Z" transform="translate(-127.612 -328.683)" fill="#005e97"></path>
        <path id="Path_471" data-name="Path 471" d="M323.826,375.708c.6,0,1.02,0,1.02-.682,0-1.286-1.21-5.487-6.924-5.487a9.025,9.025,0,0,0-9.384,9.232c0,5.26,3.784,8.552,8.778,8.552,4.806,0,7.454-3.332,7.454-3.9a.335.335,0,0,0-.341-.341c-.227,0-.264.04-.83.607a6.184,6.184,0,0,1-4.163,1.514c-3.9,0-6.7-3.255-6.7-7.492,0-1.968.341-2,.985-2Zm-9.575-1.176c-.87,0-1.021,0-1.021-.413a4.626,4.626,0,0,1,4.578-3.709c.567,0,3.14.076,3.14,2.307,0,.986-.946,1.815-2.573,1.815Z" transform="translate(-135.836 -328.793)" fill="#005e97" fill-rule="evenodd"></path>
        <path id="Path_472" data-name="Path 472" d="M336.4,369.75c0-.339-.039-.643-.416-.643-.189,0-1.059.871-1.135.948a13.559,13.559,0,0,1-3.823,2.307c-.453.115-.6.264-.6.531,0,.416.379.416.494.416,1.437.074,1.927.15,1.927,2.533v7.3c0,2.119,0,2.536-1.665,2.763-.871.112-1.133.264-1.133.606,0,.491.377.491.642.491.605,0,3.366-.151,3.936-.151.679,0,3.746.151,4.388.151.3,0,.8,0,.8-.531,0-.566-.53-.606-1.362-.643-1.93-.113-1.93-1.135-1.93-2.685v-7.188c0-3.143,1.1-3.709,1.854-3.709.227,0,.529.075,1.174.793a2.4,2.4,0,0,0,1.966.985,2.195,2.195,0,0,0,2.309-2.157c0-1.514-1.363-2.27-2.724-2.27-2.2,0-4.051,2.155-4.124,2.27-.038.074-.228.3-.34.3-.228,0-.228-.3-.228-.528V369.75Z" transform="translate(-140.346 -328.702)" fill="#005e97"></path>
        <path id="Path_473" data-name="Path 473" d="M350.719,381.606c0,2.082,0,2.5-1.626,2.726-.832.112-1.134.264-1.134.606,0,.491.379.491.643.491.643,0,2.384-.151,3.974-.151,1.74,0,3.366.151,3.935.151.264,0,.642,0,.642-.454,0-.342-.189-.531-1.135-.643-1.626-.227-1.626-.681-1.626-2.763V369.349c0-.834,0-1.324-.417-1.324-.3,0-1.475,1.02-1.739,1.21a12.03,12.03,0,0,1-3.331,1.551c-.454.152-.6.341-.6.605,0,.454.6.492.718.492,1.361.074,1.7.6,1.7,2.536v7.187Zm3.9-17.9a2.084,2.084,0,0,0-2.081-2.119,2.108,2.108,0,0,0-2.12,2.081,2.1,2.1,0,0,0,4.2.039Z" transform="translate(-144.105 -327.126)" fill="#005e97" fill-rule="evenodd"></path>
        <path id="Path_474" data-name="Path 474" d="M364.624,378.167c0-5.9,3.857-7.795,5.525-7.795,1.057,0,1.776.492,2.949,2.044,1.249,1.666,1.7,2.269,2.346,2.269.946,0,1.136-2.117,1.136-2.648,0-2.2-5.223-2.5-5.829-2.5-4.69,0-10.29,3.294-10.29,9.386,0,5.863,5.107,8.4,9.42,8.4,4.05,0,6.889-2.421,6.889-3.179a.373.373,0,0,0-.341-.377,1.074,1.074,0,0,0-.416.187,7.178,7.178,0,0,1-11.388-5.788Z" transform="translate(-146.727 -328.793)" fill="#005e97"></path>
        <path id="Path_475" data-name="Path 475" d="M392.043,376.086c0,.68-.037.983-.946,1.362-5.826,2.306-7.831,3.935-7.831,6.7a2.938,2.938,0,0,0,2.95,3.179c1.7,0,3.746-1.4,5.334-2.685,0,0,.19-.153.266-.153.114,0,.19,0,.53.719a3.018,3.018,0,0,0,2.648,2.042c1.665,0,3.973-1.778,3.973-2.686a.364.364,0,0,0-.341-.339c-.19,0-.227.037-.645.379a1.846,1.846,0,0,1-1.1.377c-1.06,0-1.171-.947-1.171-2.121V372.3c0-1.554-.872-2.764-4.429-2.764-5.752,0-8.136,3.9-8.136,5.186a.776.776,0,0,0,.834.755c.037,0,2.232-.151,2.839-1.855.3-.868,1.133-3.177,3.329-3.177,1.778,0,1.891,1.815,1.891,3.14v2.5Zm0,4.806c0,2.648-1.475,4.01-3.178,4.01-.831,0-1.7-.68-1.7-2.5,0-.756,0-2.194,2.383-3.329a6.511,6.511,0,0,1,2.083-.8c.188,0,.415.04.415.42v2.2Z" transform="translate(-151.486 -328.793)" fill="#005e97" fill-rule="evenodd"></path>
        <path id="Path_476" data-name="Path 476" d="M405.455,371.392a4.11,4.11,0,0,0-4.111,4.11,4.091,4.091,0,0,0,7.228,2.635,4.119,4.119,0,0,0,.971-2.6,4.2,4.2,0,0,0-1.171-2.917,4.147,4.147,0,0,0-2.918-1.227Zm3.557,4.11a3.568,3.568,0,1,1-3.557-3.616,3.592,3.592,0,0,1,3.557,3.616Zm-3.44-2.4H403.28v.261c.522.036.7.153.7.578v2.978c0,.413-.166.545-.7.565v.262h2.246v-.262c-.508-.034-.686-.164-.686-.565V375.5h.165a1.019,1.019,0,0,1,1.135.8c.094.379-.023.829.177,1.195a.957.957,0,0,0,1.7-.616v-.14h-.261a1.025,1.025,0,0,1-.011.13c0,.389-.141.612-.355.612-.367,0-.284-.437-.39-.872a1.539,1.539,0,0,0-1.24-1.195c1.133-.2,1.642-.533,1.642-1.193,0-.612-.652-1.122-1.833-1.122Zm-.732.65c0-.273.189-.4.579-.4a.936.936,0,0,1,1.064.918c0,.6-.437.993-1.277.993H405.1c-.024,0-.118,0-.26-.012v-1.5Z" transform="translate(-155.303 -329.182)" fill="#0067ac" fill-rule="evenodd"></path>
      </g>
      <path id="Path_477" data-name="Path 477" d="M174.038,320.547a15.507,15.507,0,0,1-1.67,2.169c.021.086-.047.217.06.262.133-.063.107.11.15.154-.11.107-.526.274-.38.581-.858.487-1.247,1.633-1.976,2.251-.333.32-.188.758-.734.88-.845,1.073-1.34,2-2.251,3.052l0,.151-.11,0c-.631,1.3-1.694,2.343-2.457,3.613l-.063-.043c-.51.512-.611,1.294-1.227,1.741a20.7,20.7,0,0,1-1.765,2.691c0,.085-.026.259-.157.213a22.948,22.948,0,0,1-2.209,3.182c-.037.869-.889,1.029-1.01,1.724-.115.431-.488.6-.6.969.058.457-.514.774-.544,1.253-.571.381-.627,1.1-1.114,1.591a5.645,5.645,0,0,1-.809,1.445c-.547.142-.236,1.061-.805,1.2a3.374,3.374,0,0,1-.964,1.639l0,.217c-.868,1.16-1.351,2.653-2.112,3.923.168.374-.314.453-.232.778-.092.239-.207.563-.319.846.009.718-.607,1.121-.965,1.658l.043.043c-.416.235-.08.871-.648,1.036l0,.214c-.044,0-.108-.023-.153.045l0,.107c-.236-.264-.675-.013-.711-.426-.326-.028-.85.006-1-.236.067-.128-.107-.152-.149-.217l-.108,0c.045-.085-.041-.131-.106-.2-.921,1.681-1.6,3.038-2.366,4.7a10.893,10.893,0,0,0-.542,1.1,65.493,65.493,0,0,0-2.79,6.521,8.31,8.31,0,0,0-.929,2.228l-.088,0c-.981,2.6-2.13,4.907-2.918,7.631-.138.415-.441.3-.428.778a2.638,2.638,0,0,0-.81,1.554c-.2.233-.162.538-.533.62-.356.408-.345,1.061-.915,1.289-.412-.092-.764.139-1.087-.126l-.292-.68a3.38,3.38,0,0,1-2.575-2.025c-.358-.7-.153-1.2-.228-1.9-1.414-1.329-.638-3.4-1.176-4.916a.933.933,0,0,1-.516-.444,21.622,21.622,0,0,1,2.3-5.595,143.825,143.825,0,0,1,8.288-14.936c1.049-1.506,1.533-3.085,3.057-4.341a1.9,1.9,0,0,1,1.457.134l.063.044c.4-.757,1.086-1.134,1.448-1.912a296.916,296.916,0,0,1,17.224-24.441c.6-.86,1.771-1.733,2.354-2.724a8.342,8.342,0,0,0,.954-1.093c.5.183.637-.315,1.045-.025.3.026.337-.581.634-.207,1.224-.283,2.161-1.616,3.532-1.614a2.015,2.015,0,0,1,1.768-.274,8.434,8.434,0,0,1,1.253.436c.233.416.954,1.5-.073,1.717Z" transform="translate(-98.121 -318.04)" fill="#b32a24"></path>
      <path id="Path_478" data-name="Path 478" d="M160.127,321.01c-.283-.028-.439.187-.683.4-2.5,3.959-5.936,7.273-8.246,11.236-.914,1.247-1.874,2.689-2.725,4.044a96.713,96.713,0,0,0-5.062,8.268H143.3c-.756,1.03-.8,2.292-2.03,2.923-.288.3-.341.887-.8.987l0,.108c-.649-.251-.88-.733-1.328-1.22-.064-.109-.175-.045-.261-.07-.936,1.288-1.789,2.754-2.68,3.98a8.932,8.932,0,0,1-.606,1.075c-1.027,1.485-2.019,3.472-3.114,5.083-.569,1.426-1.46,2.673-2.118,4.141-.315.583-.63,1.185-.966,1.746-.259,1.128-.9,1.7-1.2,2.916-.388.995-.451,2.125-1.444,2.891l.043.046c-.481.186-.163.693-.54.991-.133.152-.371.082-.567.1-.1-.631-.974-.319-1.359-.7-1.031-.736-2.165-1.843-2.03-3.343a.888.888,0,0,0-.29-.875c-.172-.092-.209-.439-.4-.531a4.257,4.257,0,0,1-.082-1.567,34.552,34.552,0,0,1,1.485-4.107c.745-1.577,1.4-2.959,2.255-4.4,2.529-4.111,4.62-7.906,7.366-11.927a12.853,12.853,0,0,0,1.346-2.282c.54.225.616-.425,1,.061.35-.168.47.4.821.341.369.05.987-.526,1.305-.089.765-.16.673-1.162,1.136-1.546a176.631,176.631,0,0,1,14.34-19.965c-.079-.544.633-.119.9-.244l.348,0c.021.067-.046.175.061.22a1.733,1.733,0,0,1,1.991-.6c.063.111.279.223.411.116.993-.831,2.51-1.633,3.935-1.042.387.225,1.015.454.983.975a.367.367,0,0,1,.144.525l-1.219,1.329Z" transform="translate(-96.6 -317.978)" fill="#b32a24"></path>
      <path id="Path_479" data-name="Path 479" d="M146.228,322.727c-.5.362-.5,1.167-1.219,1.329a1.793,1.793,0,0,1-.975.982,73.079,73.079,0,0,0-7.909,10.57,20.476,20.476,0,0,0-1.927,3.251c-.348-.093-.467.514-.742.1-.24-.026-.44.254-.676.1l-.4-.6a1.179,1.179,0,0,0-.636.248c-.044.067-.156.174-.047.219-.4.209-.556.707-.8,1.14a20.948,20.948,0,0,0-2.213,3.291c-.315.669-.976,1.069-1.185,1.872-.33.213-.445.623-.691.924a15.762,15.762,0,0,0-1.657,2.8c-.382.581-.669.838-1.027,1.374.193.2-.265.255-.2.476-.541,1.034-1.007,1.593-1.569,2.541a7.209,7.209,0,0,0-.861,1.965c-.152.019-.224.411-.443.514a30.131,30.131,0,0,1-1.247,2.894c-.34.758-.614,1.556-1.02,2.332-.994-.384-.6,1.8-1.8,1.122a2.724,2.724,0,0,1-2.364-1.825c-1.023-1.236.308-2.692-.145-4.116-.764.139-.16-.828-.612-1.053a28.577,28.577,0,0,1,2.263-6.3c2.605-4.674,5.671-9.474,8.535-13.993a27.752,27.752,0,0,1,2.472-3.309l-.107-.089c.66-.4,1.35-1.3,2.259-1.007a1.806,1.806,0,0,1,1.349.024c.232.4.818.45.985.887.324.092.224-.386.528-.337a47.906,47.906,0,0,1,7.574-8.856l0-.218.2.006,2.235-2.159a4.5,4.5,0,0,1,1.456.133c.327-.079.364.29.581.382.506-.275.995-.831,1.467-.541.211.352.755.363,1.08.431,0,.046,0,.131.063.156l.108,0c0,.064-.024.13.042.153.217-.062.017.218.147.264-.36.668-1.041,1.049-.861,1.921Z" transform="translate(-94.999 -318.343)" fill="#b32a24"></path>
      <path id="Path_480" data-name="Path 480" d="M106.42,348.312,89.994,319.368h28.28l3.871,6.826L106.42,348.312Z" transform="translate(-89.994 -318.269)" fill="#005e97"></path>
    </g>
    <g id="Group_421" class="logo-text" data-name="Group 421" transform="translate(174.943 399.827)">
      <path id="Path_481" data-name="Path 481" d="M209.793,436.5l-.675-9.052c-.064-.929-.106-2.089-.106-2.533-.106.485-.3,1.414-.57,2.342l-2.659,9.243h-2.067l-2.427-8.841c-.274-.971-.549-2.279-.633-2.765,0,.486-.085,1.878-.148,2.786l-.633,8.821h-2.385l1.33-14.6h3.228l2.237,8.272c.337,1.224.464,2.047.548,2.49a23.237,23.237,0,0,1,.528-2.447l2.3-8.315h3.229l1.287,14.6Z" transform="translate(-197.491 -421.626)" fill="#b32a24"></path>
      <path id="Path_482" data-name="Path 482" d="M219.814,436.5V421.9h2.49v14.6Z" transform="translate(-202.173 -421.626)" fill="#b32a24"></path>
      <path id="Path_483" data-name="Path 483" d="M234.581,436.5l-3.271-6.858a43.659,43.659,0,0,1-1.857-4.325l-.063.063c.106,1.224.126,2.764.148,4.052l.085,7.069h-2.385V421.9h2.743l3.546,7.133a26.64,26.64,0,0,1,1.5,3.756l.063-.063c-.063-.739-.211-2.827-.211-4.157l-.042-6.669h2.3v14.6Z" transform="translate(-203.73 -421.626)" fill="#b32a24"></path>
      <path id="Path_484" data-name="Path 484" d="M251.376,436.5l-3.271-6.858a43.852,43.852,0,0,1-1.857-4.325l-.063.063c.106,1.224.126,2.764.148,4.052l.085,7.069h-2.384V421.9h2.743l3.545,7.133a26.638,26.638,0,0,1,1.5,3.756l.063-.063c-.063-.739-.211-2.827-.211-4.157l-.043-6.669h2.3v14.6Z" transform="translate(-207.254 -421.626)" fill="#b32a24"></path>
      <path id="Path_485" data-name="Path 485" d="M260.828,436.5V421.9h8.1l-.316,1.984h-5.36v3.988h4.495v2H263.3v4.558h5.845V436.5Z" transform="translate(-210.777 -421.626)" fill="#b32a24"></path>
      <path id="Path_486" data-name="Path 486" d="M277.74,436.715a9.343,9.343,0,0,1-4.79-1.309l.929-1.856a7.458,7.458,0,0,0,3.946,1.2c1.793,0,2.869-.865,2.869-2.321,0-1.077-.676-1.752-2.174-2.174l-1.561-.443a4.788,4.788,0,0,1-2.828-1.751,3.681,3.681,0,0,1-.612-2.131c0-2.575,2.025-4.326,4.959-4.326A8.119,8.119,0,0,1,283.1,423l-1.1,1.709a6.285,6.285,0,0,0-3.44-1.118c-1.435,0-2.384.781-2.384,1.983,0,.907.507,1.371,1.941,1.794l1.731.506c2.11.612,3.588,1.963,3.588,4.157C283.438,434.457,281.475,436.715,277.74,436.715Z" transform="translate(-213.319 -421.564)" fill="#b32a24"></path>
      <path id="Path_487" data-name="Path 487" d="M294.961,436.678c-4.157,0-6.2-3.208-6.2-7.533,0-4.811,2.448-7.512,6.1-7.512,4.115,0,6.1,3.271,6.1,7.533C300.954,433.724,298.76,436.678,294.961,436.678Zm-.126-13.168c-2.447,0-3.377,1.984-3.377,5.487,0,3.756.95,5.845,3.44,5.845,2.173,0,3.292-1.6,3.292-5.529C298.19,425.748,297.451,423.511,294.835,423.511Z" transform="translate(-216.635 -421.57)" fill="#b32a24"></path>
      <path id="Path_488" data-name="Path 488" d="M314.916,423.925h-3.671V436.5h-2.427V423.925h-3.694V421.9h10.109Z" transform="translate(-220.068 -421.626)" fill="#b32a24"></path>
      <path id="Path_489" data-name="Path 489" d="M325.859,436.5l-1.182-3.841h-4.726l-1.183,3.841h-2.511l4.79-14.623h2.806l4.663,14.623Zm-3.46-12.2h-.021s-1.5,5.361-1.836,6.331h3.588C323.981,430.314,322.5,424.87,322.4,424.3Z" transform="translate(-222.403 -421.62)" fill="#b32a24"></path>
      <path id="Path_490" data-name="Path 490" d="M347.274,436.5l-1.181-3.841h-4.726l-1.182,3.841h-2.511l4.79-14.623h2.806l4.664,14.623Zm-3.46-12.2h-.021s-1.5,5.361-1.835,6.331h3.587C345.4,430.314,343.918,424.87,343.813,424.3Z" transform="translate(-226.895 -421.62)" fill="#b32a24"></path>
      <path id="Path_491" data-name="Path 491" d="M362.612,436.5l-3.27-6.858a43.9,43.9,0,0,1-1.858-4.325l-.063.063c.107,1.224.126,2.764.149,4.052l.085,7.069h-2.385V421.9h2.743l3.546,7.133a26.617,26.617,0,0,1,1.5,3.756l.063-.063c-.063-.739-.211-2.827-.211-4.157l-.042-6.669h2.3v14.6Z" transform="translate(-230.586 -421.626)" fill="#b32a24"></path>
      <path id="Path_492" data-name="Path 492" d="M380.885,434.455c-1.224,1.562-2.49,2.047-5.212,2.047h-3.609V421.9H375.1c2.744,0,4.368.507,5.74,2.069a7.8,7.8,0,0,1,1.582,5.275A8.246,8.246,0,0,1,380.885,434.455Zm-2.089-9.369a2.949,2.949,0,0,0-2.744-1.267h-1.54v10.7h1.6c2.575,0,3.609-1.709,3.609-5.022C379.725,427.618,379.556,426.12,378.8,425.086Z" transform="translate(-234.109 -421.626)" fill="#b32a24"></path>
      <path id="Path_493" data-name="Path 493" d="M405.93,436.586h-2.785l-1.5-6.773c-.485-2.195-.718-4.221-.718-4.221h-.063s-.379,2.385-.738,4.157l-1.414,6.836h-2.849L392.384,421.9h2.6l1.456,6.8c.506,2.363.78,4.685.78,4.685h.063s.422-2.744.8-4.515L399.6,421.9h2.722l1.519,7.259c.359,1.731.718,4.115.718,4.115h.063s.485-3.08.844-4.748l1.393-6.626h2.532Z" transform="translate(-238.372 -421.626)" fill="#b32a24"></path>
      <path id="Path_494" data-name="Path 494" d="M416.176,436.5V421.9h2.489v14.6Z" transform="translate(-243.362 -421.626)" fill="#b32a24"></path>
      <path id="Path_495" data-name="Path 495" d="M427.453,436.715a9.343,9.343,0,0,1-4.79-1.309l.929-1.856a7.455,7.455,0,0,0,3.946,1.2c1.794,0,2.87-.865,2.87-2.321,0-1.077-.676-1.752-2.174-2.174l-1.562-.443a4.786,4.786,0,0,1-2.827-1.751,3.675,3.675,0,0,1-.612-2.131c0-2.575,2.025-4.326,4.959-4.326A8.121,8.121,0,0,1,432.814,423l-1.1,1.709a6.284,6.284,0,0,0-3.439-1.118c-1.435,0-2.385.781-2.385,1.983,0,.907.507,1.371,1.942,1.794l1.73.506c2.11.612,3.588,1.963,3.588,4.157C433.151,434.457,431.188,436.715,427.453,436.715Z" transform="translate(-244.723 -421.564)" fill="#b32a24"></path>
      <path id="Path_496" data-name="Path 496" d="M444.76,436.662a5.737,5.737,0,0,1-4.622-2.111,7.994,7.994,0,0,1-1.667-5.212,9.231,9.231,0,0,1,.97-4.432,6.039,6.039,0,0,1,5.382-3.355,5.827,5.827,0,0,1,3.63,1.139l-1.119,1.6a4.059,4.059,0,0,0-2.49-.823,3.259,3.259,0,0,0-2.911,1.751,7.7,7.7,0,0,0-.76,3.841,8.381,8.381,0,0,0,.569,3.629,3.4,3.4,0,0,0,3.25,2.069,3.872,3.872,0,0,0,2.616-.929l1.14,1.54A6.321,6.321,0,0,1,444.76,436.662Z" transform="translate(-248.039 -421.553)" fill="#b32a24"></path>
      <path id="Path_497" data-name="Path 497" d="M458.745,436.678c-4.157,0-6.2-3.208-6.2-7.533,0-4.811,2.448-7.512,6.1-7.512,4.115,0,6.1,3.271,6.1,7.533C464.738,433.724,462.543,436.678,458.745,436.678Zm-.127-13.168c-2.447,0-3.376,1.984-3.376,5.487,0,3.756.95,5.845,3.439,5.845,2.174,0,3.292-1.6,3.292-5.529C461.973,425.748,461.235,423.511,458.618,423.511Z" transform="translate(-250.99 -421.57)" fill="#b32a24"></path>
      <path id="Path_498" data-name="Path 498" d="M478.789,436.5l-3.27-6.858a43.464,43.464,0,0,1-1.857-4.325l-.063.063c.105,1.224.126,2.764.147,4.052l.085,7.069h-2.385V421.9h2.744l3.545,7.133a26.549,26.549,0,0,1,1.5,3.756l.063-.063c-.063-.739-.211-2.827-.211-4.157l-.042-6.669h2.3v14.6Z" transform="translate(-254.955 -421.626)" fill="#b32a24"></path>
      <path id="Path_499" data-name="Path 499" d="M492.1,436.715a9.343,9.343,0,0,1-4.79-1.309l.929-1.856a7.458,7.458,0,0,0,3.946,1.2c1.793,0,2.869-.865,2.869-2.321,0-1.077-.675-1.752-2.174-2.174l-1.561-.443a4.783,4.783,0,0,1-2.827-1.751,3.676,3.676,0,0,1-.612-2.131c0-2.575,2.026-4.326,4.96-4.326A8.118,8.118,0,0,1,497.457,423l-1.1,1.709a6.285,6.285,0,0,0-3.44-1.118c-1.434,0-2.384.781-2.384,1.983,0,.907.506,1.371,1.942,1.794l1.73.506c2.11.612,3.587,1.963,3.587,4.157C497.794,434.457,495.832,436.715,492.1,436.715Z" transform="translate(-258.283 -421.564)" fill="#b32a24"></path>
      <path id="Path_500" data-name="Path 500" d="M503.916,436.5V421.9h2.489v14.6Z" transform="translate(-261.766 -421.626)" fill="#b32a24"></path>
      <path id="Path_501" data-name="Path 501" d="M518.682,436.5l-3.271-6.858a43.431,43.431,0,0,1-1.856-4.325l-.064.063c.105,1.224.127,2.764.148,4.052l.084,7.069h-2.384V421.9h2.744l3.545,7.133a26.62,26.62,0,0,1,1.5,3.756l.063-.063c-.063-.739-.21-2.827-.21-4.157l-.043-6.669h2.3v14.6Z" transform="translate(-263.323 -421.626)" fill="#b32a24"></path>
    </g>
  </g>
</svg>