<svg width="283" height="46" viewBox="0 0 283 46" fill="none" xmlns="http://www.w3.org/2000/svg"><path d="M63.554 20.966l-1.722 4.83h-2.24l-1.722-4.83L57.716 27H55.91l.42-9.324h1.974l2.408 6.622 2.408-6.622h1.974l.42 9.324h-1.806l-.154-6.034zM68.32 27v-9.324h5.712v1.554h-3.948v2.254h3.64v1.554h-3.64v2.408h3.948V27H68.32zm16.073 0h-2.114l-2.142-3.08h-1.68V27h-1.764v-9.324h3.822c2.17 0 2.968.882 2.968 2.52v1.218c0 1.12-.42 1.904-1.4 2.254L84.393 27zm-2.674-6.664c0-.784-.336-1.106-1.274-1.106h-1.988v3.164h1.988c.966 0 1.274-.35 1.274-1.134v-.924zm6.753-2.66V27h-1.764v-9.324h1.764zm3.012 0h3.472c2.296 0 3.094 1.162 3.094 2.506v4.312c0 1.33-.798 2.506-3.094 2.506h-3.472v-9.324zm1.764 1.554v6.216h1.526c1.19 0 1.512-.476 1.512-1.372v-3.472c0-.896-.322-1.372-1.512-1.372h-1.526zm9.359-1.554V27h-1.764v-9.324h1.764zM111.415 27l-.602-1.932h-3.458L106.767 27h-1.848l2.94-9.324h2.464l2.94 9.324h-1.848zm-2.324-7.868l-1.302 4.41h2.576l-1.274-4.41zM120.774 27l-3.542-7.07V27h-1.722v-9.324h2.352l3.542 7.084v-7.084h1.722V27h-2.352z" fill="#2BB7E0"/><path d="M133.77 27h-3.92v-9.324h3.668c1.764 0 2.478.728 2.478 1.988v.966c0 .77-.322 1.204-1.036 1.512.854.182 1.358.812 1.358 1.722v.994c0 1.316-.854 2.142-2.548 2.142zm.784-2.366v-.7c0-.63-.28-.938-.98-.938h-1.96v2.548h1.806c.798 0 1.134-.224 1.134-.91zm-.322-3.92v-.826c0-.518-.28-.756-.924-.756h-1.694v2.45h1.68c.686 0 .938-.322.938-.868zM138.77 27v-9.324h5.712v1.554h-3.948v2.254h3.64v1.554h-3.64v2.408h3.948V27h-5.712zm15.36 0h-1.764v-3.934h-3.458V27h-1.764v-9.324h1.764v3.836h3.458v-3.836h1.764V27zm8.741 0l-.602-1.932h-3.458L158.223 27h-1.848l2.94-9.324h2.464l2.94 9.324h-1.848zm-2.324-7.868l-1.302 4.41h2.576l-1.274-4.41zm8.872 6.314l2.254-7.77h1.834L170.721 27h-2.604l-2.786-9.324h1.834l2.254 7.77zm7.918-7.77V27h-1.764v-9.324h1.764zm9.858 2.73v3.864c0 1.554-.896 2.87-3.528 2.87s-3.528-1.316-3.528-2.87v-3.864c0-1.554.896-2.87 3.528-2.87s3.528 1.316 3.528 2.87zm-5.292.098v3.668c0 .882.448 1.414 1.764 1.414s1.764-.532 1.764-1.414v-3.668c0-.882-.448-1.414-1.764-1.414s-1.764.532-1.764 1.414zM197.626 27h-2.114l-2.142-3.08h-1.68V27h-1.764v-9.324h3.822c2.17 0 2.968.882 2.968 2.52v1.218c0 1.12-.42 1.904-1.4 2.254l2.31 3.332zm-2.674-6.664c0-.784-.336-1.106-1.274-1.106h-1.988v3.164h1.988c.966 0 1.274-.35 1.274-1.134v-.924zM205.804 27l-.602-1.932h-3.458L201.156 27h-1.848l2.94-9.324h2.464l2.94 9.324h-1.848zm-2.324-7.868l-1.302 4.41h2.576l-1.274-4.41zm8.183-1.456v7.77h3.836V27h-5.6v-9.324h1.764zM228.572 27h-1.764v-3.934h-3.458V27h-1.764v-9.324h1.764v3.836h3.458v-3.836h1.764V27zm2.946 0v-9.324h5.712v1.554h-3.948v2.254h3.64v1.554h-3.64v2.408h3.948V27h-5.712zm14.374 0l-.602-1.932h-3.458L241.244 27h-1.848l2.94-9.324h2.464L247.74 27h-1.848zm-2.324-7.868l-1.302 4.41h2.576l-1.274-4.41zm8.183-1.456v7.77h3.836V27h-5.6v-9.324h1.764zM258.323 27v-7.77h-2.604v-1.554h6.972v1.554h-2.604V27h-1.764zm13.592 0h-1.764v-3.934h-3.458V27h-1.764v-9.324h1.764v3.836h3.458v-3.836h1.764V27z" fill="#877F7A"/><g clip-path="url(#a)"><path d="M23.005 23.004v-10.11c0-1.117.905-2.023 2.021-2.023h10.11V4.04c0-2.702-3.267-4.055-5.177-2.145l-6.24 6.24a1.011 1.011 0 0 1-1.43 0l-6.239-6.24c-1.91-1.91-5.177-.557-5.177 2.145v6.837l12.123 12.128h.009z" fill="#8BD6EC"/><path d="M22.995 23.012v-.008h-10.1a2.022 2.022 0 0 1-2.022-2.023V10.877l-.005-.005H4.039c-2.702 0-4.055 3.267-2.145 5.178l6.238 6.24a1.011 1.011 0 0 1 0 1.43l-6.238 6.24c-1.91 1.91-.557 5.177 2.145 5.177h6.834v-.004l12.123-12.12z" fill="#D2D353"/><path d="M12.895 23.004h10.1L10.874 10.876v10.106c0 1.116.905 2.022 2.022 2.022z" fill="#80C563"/><path d="M23.005 23.004l-.01.008v10.102a2.022 2.022 0 0 1-2.021 2.022H10.873v6.825c0 2.702 3.266 4.055 5.177 2.145l6.24-6.238a1.011 1.011 0 0 1 1.43 0l6.24 6.238c1.91 1.91 5.176.557 5.176-2.145v-6.825h-.004L23.005 23.004z" fill="#FBB880"/><path d="M22.996 33.114V23.013L10.873 35.132v.004h10.1a2.022 2.022 0 0 0 2.023-2.022z" fill="#D5A944"/><path d="M37.868 23.718a1.011 1.011 0 0 1 0-1.43l6.238-6.24c1.91-1.91.557-5.177-2.145-5.177h-6.825L23.004 23.004h10.11c1.117 0 2.022.905 2.022 2.022v10.11h6.825c2.702 0 4.055-3.267 2.145-5.177l-6.238-6.24z" fill="#F7B3D1"/><path d="M23.004 12.893v10.11l12.132-12.132h-10.11a2.022 2.022 0 0 0-2.022 2.022z" fill="#9798C3"/><path d="M33.114 23.004h-10.11l12.128 12.132h.004v-10.11a2.022 2.022 0 0 0-2.022-2.022z" fill="#F58971"/></g><defs><clipPath id="a"><path fill="#fff" transform="translate(1 1)" d="M0 0h44v44H0z"/></clipPath></defs></svg>